<?xml version="1.0" standalone="no"?>
<!DOCTYPE svg PUBLIC "-//W3C//DTD SVG 1.1//EN" "http://www.w3.org/Graphics/SVG/1.1/DTD/svg11.dtd" >
<svg xmlns="http://www.w3.org/2000/svg">
<metadata></metadata>
<defs>
<font id="the_rambleregular" horiz-adv-x="157" >
<font-face units-per-em="2048" ascent="1825" descent="-223" />
<missing-glyph horiz-adv-x="434" />
<glyph horiz-adv-x="0" />
<glyph horiz-adv-x="682" />
<glyph unicode=" "  horiz-adv-x="434" />
<glyph unicode="&#x09;" horiz-adv-x="434" />
<glyph unicode="&#xa0;" horiz-adv-x="434" />
<glyph unicode="!" d="M59 1593q0 3 4 6t7 3q5 0 8.5 -5t3.5 -8l8 -1218q-4 -9 -10 -9q-5 0 -8.5 4.5t-3.5 10.5zM63 0v137q4 8 11 8t12 -8v-139q-6 -6 -12 -6q-3 0 -7 3t-4 5z" />
<glyph unicode="&#x22;" horiz-adv-x="200" d="M35 1575q0 44 2 67q0 2 3.5 5.5t8.5 3.5q4 0 10 -6v-140q-8 -8 -10 -8q-3 0 -7.5 3.5t-4.5 6.5q-2 20 -2 68zM121 1507v68v67q0 9 12 9q6 0 12 -6v-140q-8 -8 -12 -8q-12 0 -12 10z" />
<glyph unicode="#" horiz-adv-x="598" d="M51 627q0 4 8 12h95l8 315h-103q-8 8 -8 11q0 5 4 9.5t8 4.5h97l8 399q0 3 0.5 7.5t1 7.5t1.5 6t3.5 4.5t5.5 1.5q13 0 13 -21l-9 -405h250l6 414q6 6 13 6q6 0 12 -6l-8 -414h82q3 0 6.5 -4.5t3.5 -7.5q0 -7 -6 -13h-84l-8 -315h92q6 -6 6 -12q0 -9 -8 -13h-92l-9 -571 v-17t-3 -25.5t-11 -10.5q-3 0 -5.5 2t-3.5 5.5t-1.5 7.5t0 7.5t0.5 7.5v3l12 591h-250l-10 -606q-4 -12 -14 -12q-5 0 -11 6l11 612h-93q-10 5 -10 13zM178 639h248l6 315h-248z" />
<glyph unicode="$" horiz-adv-x="389" d="M55 301q0 14 11 14q2 0 3.5 -1t2.5 -1q8 -18 47.5 -42.5t62.5 -24.5h19v653q0 1 -5 8t-6 11q-41 74 -64.5 166.5t-23.5 175.5q0 68 19 145q23 87 76 104v88q-1 3 3 7t7 4l12 -6v-86q11 -7 27 -7q28 -1 47.5 -37t19.5 -65q0 -3 -4 -6.5t-8 -3.5q-9 0 -12 6q-2 13 -6.5 30 t-19.5 37.5t-34 20.5h-6v-592q0 -2 4.5 -9t5.5 -11q49 -95 62 -134q55 -144 55 -278q0 -15 -4 -47q-18 -171 -119 -199l2 -209q0 -12 -12 -12q-7 0 -10 6q-4 32 -4 49v164q-61 13 -62 14q-12 3 -49 28t-37 40zM129 1272q0 -83 15.5 -152t54.5 -166l-2 529q-68 -43 -68 -211z M223 846l2 -598q97 21 97 217q0 102 -22.5 183.5t-76.5 197.5z" />
<glyph unicode="%" horiz-adv-x="557" d="M23 1456q0 47 42 89t89 42q3 0 59 -16q64 -23 125 -23q36 0 61 8q14 4 27 14t20.5 17.5t10.5 7.5q12 0 12 -14q0 -2 -10.5 -51t-26.5 -121.5t-24 -112.5q-6 -31 -25 -116t-23 -105q-4 -19 -12.5 -57.5t-16 -73t-12.5 -63.5q-4 -16 -16.5 -77.5t-19.5 -90.5 q-19 -86 -27 -127q-3 -14 -12 -52.5t-13 -60.5q-94 -446 -106 -498q0 -6 -10 -6q-5 0 -9 5.5t-4 9.5l334 1562q-13 -5 -23 -9t-19 -6.5t-13.5 -4t-12 -2t-9 -0.5h-10h-9.5q-3 0 -35 4t-35 4h-6q20 -31 25.5 -45.5t5.5 -38.5q0 -48 -37.5 -98t-89.5 -50q-58 0 -101.5 52 t-43.5 104zM45 1458q0 -9 12 -45q37 -88 109 -88q47 0 74.5 40t27.5 85q0 31 -17.5 60.5t-57.5 41.5q-30 9 -35 9q-42 0 -77.5 -29.5t-35.5 -73.5zM248 145q0 50 42 92t91 42q54 0 98.5 -45.5t44.5 -96.5q0 -49 -40 -98t-89 -49q-60 0 -103.5 53t-43.5 102zM272 147 q0 -8 11 -41q39 -90 110 -90q46 0 73.5 38t27.5 85q0 45 -30.5 78t-78.5 33q-37 0 -68.5 -21.5t-42.5 -64.5q0 -2 -1 -8.5t-1 -8.5z" />
<glyph unicode="&#x26;" horiz-adv-x="614" d="M41 414q0 46 6 86q4 52 14 88q11 35 23 71q3 10 20 50l11 22l15.5 31l14.5 29q14 21 15 22q10 17 29 44.5t33 47t14 21.5l-7 14q-5 25 -33.5 120.5t-50.5 189.5t-22 155q0 134 88 180q36 19 68 19q35 0 69 -21q48 -31 70 -96.5t22 -132.5q0 -88 -37 -176q-21 -54 -36 -80 q-13 -25 -40.5 -67.5t-48 -73t-20.5 -31.5q0 -8 31 -109q74 -227 178 -526h2q54 163 74 284q0 9 10 9q12 0 12 -15q0 -2 -2 -12t-4.5 -23t-3.5 -20q-25 -118 -76 -260l82 -246q-3 -10 -12 -10q-10 0 -10 6q-23 60 -72 213h-2q-12 -29 -29 -61.5t-43 -70t-59 -61.5t-66 -24 q-21 0 -49 14t-49 33q-129 122 -129 367zM66 416q0 -43 8 -105q4 -24 14.5 -61.5t32 -92t58 -91.5t79.5 -37q129 0 199 221l-215 653q-176 -239 -176 -487zM147 1395q0 -55 18.5 -136.5t48 -180.5t36.5 -130q168 237 168 404q0 24 -6 58.5t-19 75.5t-40.5 69t-63.5 28 q-17 0 -47 -10q-95 -37 -95 -178z" />
<glyph unicode="'" d="M55 1575q0 44 2 67q0 2 4 5.5t9 3.5q4 0 10 -6v-140q-8 -8 -10 -8q-3 0 -8 3.5t-5 6.5q-2 20 -2 68z" />
<glyph unicode="(" horiz-adv-x="204" d="M47 881q0 33 10 141q4 54 13 111q12 92 16 116q7 46 18 94q1 4 7 30.5t8 41.5q10 42 37 117q21 50 32 72l14 21q14 21 29.5 39.5t22.5 18.5q10 0 10 -12q0 -9 -24 -33q-31 -45 -56 -96q-1 -2 -5.5 -14t-6.5 -19q-29 -91 -33 -114q-26 -125 -35.5 -172.5t-21 -145 t-10.5 -182.5l2 -217q0 -24 3.5 -70.5t4.5 -64.5q1 -16 6 -55.5t6 -53.5q6 -44 21 -115q6 -27 14 -67q10 -36 31 -94q6 -20 49 -113q14 -28 36.5 -60t37 -51t14.5 -20q0 -14 -10 -14t-33 34q-66 86 -113 205q-28 69 -51 170q-41 195 -41 328z" />
<glyph unicode=")" horiz-adv-x="204" d="M-80 -92q0 4 25 35q50 62 94 155q18 42 27 70q22 70 36 131q33 152 43 313q0 7 1 24.5t1 18.5v267q0 56 -10 141q-6 56 -14 113q-1 7 -5 37t-7 47q-2 12 -23 110q-12 54 -14 60q-10 44 -23 77q-25 70 -67 127q-25 25 -25 33q0 12 12 12q7 0 29 -28q55 -72 90 -187 q10 -29 16 -69q3 -14 16 -79.5t17 -86.5t13.5 -76.5t12.5 -88.5t6 -81t3 -92l-2 -201q0 -34 -10 -137q-3 -51 -10 -113q-3 -19 -17 -98q-1 -6 -18 -88q-14 -59 -51 -150q-3 -8 -33 -71q-16 -29 -52.5 -83t-48.5 -54q-3 0 -7.5 4.5t-4.5 7.5z" />
<glyph unicode="*" horiz-adv-x="368" d="M49 1489q0 10 10 12l93 2q-1 1 -13.5 12t-24 22t-22 22.5t-10.5 15.5q0 3 5 6.5t9 3.5q5 0 70 -65q2 2 2 90q0 2 4 7t8 5q7 0 10 -6l3 -98l4 4q4 4 9.5 10t12.5 13l14 14t13.5 13t11 9.5t6.5 3.5q12 0 12 -10q0 -7 -67 -74h96q8 -8 8 -12t-8 -12h-96q70 -64 70 -72 q0 -3 -4.5 -7.5t-8.5 -4.5q-3 0 -15 11t-31 29.5t-27 26.5v-98q-6 -6 -13 -6q-4 0 -8 5t-4 9l-2 90q-62 -67 -70 -67q-9 0 -14 10l68 74h-95q-6 6 -6 12z" />
<glyph unicode="+" horiz-adv-x="600" d="M53 855v3q0 8 4 12h226v277q3 6 10 6q5 0 14 -6v-277h236q6 -3 6 -12q0 -12 -8 -12h-228v-287q-4 -8 -12 -8t-12 8v287h-228q-4 0 -6 3t-2 6z" />
<glyph unicode="," d="M31 -12q0 3 25.5 52t41.5 77q6 12 15 12q10 0 10 -12q0 -2 -11 -25t-28.5 -55t-30.5 -55q-7 -7 -10 -7q-12 0 -12 13z" />
<glyph unicode="-" horiz-adv-x="573" d="M45 858q0 4 4 12h488q4 -8 4 -12q0 -12 -9 -12h-477q-10 0 -10 12z" />
<glyph unicode="." d="M63 0v137q4 8 11 8t12 -8v-139q-6 -6 -12 -6q-3 0 -7 3t-4 5z" />
<glyph unicode="/" horiz-adv-x="309" d="M-27 -29q51 258 86 430q34 177 43 220q4 20 18.5 87.5t20.5 100.5q5 31 29 147q1 6 11.5 53.5t15.5 75.5q9 45 20 111q2 11 9.5 43t9.5 45q12 57 38.5 193t42.5 215q0 8 11 8q12 0 12 -14q0 -2 -10.5 -55.5t-25 -128t-21.5 -111.5q-3 -15 -23 -107t-29 -141 q-7 -33 -19.5 -102t-18.5 -97q-3 -13 -9.5 -46.5t-13 -65.5t-10.5 -56q-19 -89 -29 -139q-4 -20 -13.5 -64.5t-11.5 -54.5q-27 -141 -110 -553q0 -6 -8 -6q-5 0 -10 4t-5 8z" />
<glyph unicode="0" horiz-adv-x="536" d="M39 793v159l2 20q2 20 2 29q17 307 115 504q1 1 35 47q15 19 37.5 33t39.5 14q7 0 14 -2t12.5 -4t12 -7t10.5 -8.5t9.5 -10.5t8.5 -11t7.5 -12t6.5 -11t6 -11t5 -9q61 -111 87 -243q17 -87 20 -119q20 -195 20 -238v-229q0 -14 -12 -143q-5 -72 -10 -103 q-8 -36 -20.5 -144t-34 -176.5t-66.5 -109.5q-31 -31 -67 -31q-51 0 -84 52q-49 73 -80 209q0 1 -13 59q0 2 -10.5 68.5t-22 143t-21 160.5t-9.5 124zM63 788q0 -72 27 -311q8 -60 41 -207q29 -132 78 -213q38 -61 76 -61q54 0 102 145q19 72 25 103q59 364 59 501v195 q0 41 -20 201q-1 10 -19 96q-23 116 -78 238q-44 102 -92 102q-34 0 -67 -55q-106 -181 -129 -537q0 -8 -1.5 -26.5t-1.5 -20.5v-150z" />
<glyph unicode="1" horiz-adv-x="309" d="M51 1507q0 3 45 47.5t51 44.5q5 0 9 -4t4 -8l8 -1560h88q6 -3 6 -13q0 -8 -8 -12h-184q-9 4 -9 12q0 6 7 13h73l-6 1534q-66 -66 -69 -66q-6 0 -10.5 4.5t-4.5 7.5z" />
<glyph unicode="2" horiz-adv-x="481" d="M45 1233l2 78q13 282 152 282q179 0 201 -353q1 -8 1 -11q2 -20 5.5 -67.5t6.5 -81.5t3 -36v-196q0 -3 -6 -72q-29 -399 -205 -678q-28 -42 -74 -80h275q8 -8 8 -12t-6 -10h-347q-6 6 -6 10t6 10q2 2 15 2q20 4 39 23q102 99 178 291q34 85 53 180q45 210 43 340l-4 334 q0 1 -2.5 34.5t-6 73.5t-15.5 90t-29.5 89.5t-50 66.5t-74.5 27q-71 0 -107 -84q-30 -71 -30 -158l-2 -121q-8 -4 -13 -4q-10 0 -10 33z" />
<glyph unicode="3" horiz-adv-x="446" d="M53 27v14q4 4 13 4q1 0 21.5 -6.5t52 -12.5t59.5 -6q77 0 116 48q35 42 50 125q24 132 24 192v160q0 2 -1.5 20l-3.5 42l-3 36q-1 5 -6 38t-10 50q-3 14 -12 43.5t-11 38.5q-13 36 -45 92q-20 33 -23 37q-38 48 -71 72q-3 3 -7.5 6.5t-10.5 7.5l-9 6q-61 30 -61 37 q0 9 10 12q201 87 201 258q0 78 -29 156q-13 38 -43 62q-21 16 -68 16q-75 0 -108 -45q-2 -2 -6 -2q-15 0 -15 10q0 5 13 18q43 48 100 48q32 0 66 -17q26 -10 52.5 -38.5t35.5 -53.5q26 -83 26 -160q0 -84 -42.5 -145t-147.5 -117q0 -3 10 -8q71 -39 122 -103.5t76 -138 t36 -141.5t10 -135l-2 -187q-1 -71 -5.5 -115t-27.5 -107.5t-66 -112.5q-14 -16 -44.5 -23.5t-57.5 -7.5q-78 0 -158 33z" />
<glyph unicode="4" horiz-adv-x="407" d="M47 350l7 29q6 29 15.5 75.5t14.5 82.5q10 58 18 149q17 162 17 227v172q0 26 -4 84q-5 103 -29 248q-4 24 -14 65t-17.5 70.5t-7.5 30.5q0 3 5 6.5t9 3.5q12 0 29 -84q17 -72 25 -129q13 -97 14 -110q10 -118 10 -148v-211q0 -1 -1.5 -20.5t-3.5 -47t-3 -44.5 q-10 -138 -29 -273q-3 -20 -9.5 -58.5t-11.5 -67.5t-5 -31v-7h252l2 3q0 78 -0.5 228t-1.5 433.5t-2 562.5q6 6 10 6q11 0 14 -12l8 -1587q-6 -6 -12 -6q-8 0 -12 8v340h-277q-10 10 -10 12z" />
<glyph unicode="5" horiz-adv-x="468" d="M61 1079v529l7 6h329q6 -6 6 -12q0 -1 -8 -13h-311v-504q172 -141 261 -317.5t89 -345.5q0 -253 -147 -369q-58 -47 -125 -47q-16 0 -50 7.5t-34 19.5q0 4 4.5 8t9.5 4q2 0 9.5 -3t9.5 -3q28 -4 43 -4q98 0 159 71q93 110 93 304q0 29 -9 112q-6 43 -20 96q-1 4 -31 91 q-9 23 -33 67q-32 63 -71 115q-53 68 -107 119q-10 5 -42 31.5t-32 37.5z" />
<glyph unicode="6" horiz-adv-x="440" d="M35 1067l1 26q2 26 4 49t7.5 63.5t12 75t18 77.5t26 77.5t35.5 69t46 57.5t58.5 37.5t71.5 14.5q8 0 22.5 -1.5t32 -9t17.5 -18.5q0 -3 -4 -7.5t-8 -4.5q-2 0 -10.5 5t-22.5 10t-29 5q-44 0 -84 -28q-34 -27 -41 -35q-18 -23 -33.5 -46t-27 -51t-20 -46.5t-16 -52.5 t-11 -47t-8 -52.5t-5.5 -46.5t-4.5 -51.5t-3.5 -46.5q5 2 20.5 7t24.5 7q46 12 68 12q45 0 81.5 -18.5t60 -47.5t41 -69t26.5 -78.5t14 -81.5t6 -71.5t0 -55.5l-8 -340q-8 -352 -149 -352q-24 0 -44 9.5t-34.5 28t-25.5 37t-19 44.5t-12.5 41.5t-9 38t-5.5 24.5 q-25 93 -37 289q-2 30 -10.5 158.5t-9.5 197.5zM59 1059l4 -293q3 -306 66 -588q32 -151 115 -151q18 0 33 7t25 16.5t18.5 26t13 29.5t8.5 32.5t5.5 29t2.5 26.5l2 17q14 93 21 190q6 93 6 115v156q0 5 -8 121q-3 28 -5.5 45t-9.5 52t-15 58t-23 53t-33 48t-45 30.5 t-60 12.5q-70 0 -121 -33z" />
<glyph unicode="7" horiz-adv-x="413" d="M51 23l277 1564h-269q-4 0 -6 3t-2 6v3q0 9 4 13h293q6 -6 6 -13q0 -1 -9.5 -52.5t-22.5 -122t-19 -107.5q-5 -30 -18.5 -107t-20.5 -118q-30 -162 -37 -211q-5 -26 -28 -158q-21 -106 -23 -123q-10 -56 -20 -123q-2 -14 -8.5 -45.5t-8.5 -42.5q-2 -16 -12 -67 q-2 -18 -12 -68q-7 -41 -22.5 -127.5t-20.5 -114.5q-4 -4 -9 -4q-6 0 -9.5 4.5t-2.5 10.5z" />
<glyph unicode="8" horiz-adv-x="501" d="M43 551q0 368 184 512q-75 47 -109 121.5t-34 150.5q0 33 8 71t25 79t51.5 67.5t81.5 26.5q50 0 85 -29t50 -74t21 -82t6 -71q0 -163 -140 -260q54 -42 93 -108t59 -140.5t28.5 -141.5t8.5 -132q0 -60 -8.5 -135.5t-26 -158.5t-51.5 -148.5t-78 -86.5q-33 -16 -57 -16 q-35 0 -64.5 21t-49.5 59.5t-35 81t-23.5 97.5t-14 97.5t-7.5 91t-2.5 68t-0.5 39.5zM68 526q0 -45 4 -127q7 -90 24 -153q1 -2 6 -23t10 -37.5t14 -42.5t20 -45.5t25 -38.5t32.5 -29t38.5 -10q25 0 41 13q20 14 35.5 29t27 34t19.5 32.5t15 37t10 33.5t9 36.5t7 32.5 q1 5 14 78q1 15 5.5 50t4.5 36q4 70 4 105q0 205 -57 348q-33 87 -105 149q-2 1 -7 5.5t-9 7t-6 2.5q-9 0 -42 -35t-36 -41q-34 -55 -43 -74q-17 -42 -31 -88q-13 -48 -20 -94q-6 -43 -6 -82q-4 -50 -4 -109zM113 1331q0 -1 2 -24.5t2 -30.5q20 -122 108 -184q23 -15 25 -15 q4 0 22.5 13.5t30.5 25.5q6 5 33 39q25 32 37 72q14 53 14 100q0 32 -5.5 66t-19.5 73t-45 63.5t-75 24.5q-39 0 -66.5 -27.5t-40 -68.5t-17.5 -72.5t-5 -54.5z" />
<glyph unicode="9" horiz-adv-x="436" d="M37 889l6 350q2 12 6 64.5t10.5 92.5t20 87t42 73.5t68.5 26.5q36 0 64.5 -24.5t46 -65t26.5 -70.5t15 -63q18 -91 20 -113q13 -113 13 -114q26 -372 26 -431v-190q0 -28 -10 -100q-23 -151 -50 -228q-72 -198 -220 -198q-7 0 -21 1.5t-32.5 8t-18.5 16.5q0 3 3.5 8 t6.5 5t12 -5t13 -6q24 -8 39 -8q36 0 80 27q85 50 129.5 194.5t44.5 268.5v12q-60 -29 -111 -29q-151 0 -211 205q-22 73 -18 205zM55 997q0 -380 113 -465q24 -18 42.5 -23t47.5 -5q28 0 63 9.5t54 23.5v155l-4 148q-7 306 -62 561q-34 160 -119 160q-24 0 -45.5 -14 t-31.5 -40q-1 -4 -7.5 -19.5t-7.5 -21.5q-27 -139 -39 -348q0 -10 -2 -65t-2 -56z" />
<glyph unicode=":" d="M59 1059v65v68q0 3 5 6.5t8 3.5q7 0 10 -6v-141q-6 -6 -10 -6q-11 0 -13 10zM63 0v137q4 8 11 8t12 -8v-139q-6 -6 -12 -6q-3 0 -7 3t-4 5z" />
<glyph unicode=";" d="M-10 -12q0 3 25.5 52t41.5 77q6 12 15 12q10 0 10 -12q0 -2 -11 -25t-28.5 -55t-30.5 -55q-7 -7 -10 -7q-12 0 -12 13zM59 1059v65v68q0 3 5 6.5t8 3.5q7 0 10 -6v-141q-6 -6 -10 -6q-11 0 -13 10z" />
<glyph unicode="=" horiz-adv-x="614" d="M66 707q0 4 8 12h481q8 -8 8 -12q0 -5 -8 -13h-481q-8 8 -8 13zM66 983q0 4 8 12h481q8 -4 8 -12q0 -7 -8 -12h-481q-8 8 -8 12z" />
<glyph unicode="?" horiz-adv-x="442" d="M45 1214v95q0 1 1 16.5t1 22.5q17 254 166 254q51 0 85.5 -28t50 -74.5t22.5 -88t9.5 -89.5t4.5 -58q4 -16 4 -64q0 -33 2 -49l4 -231q0 -9 -2 -56q-1 -35 -10.5 -71.5t-38.5 -76t-72 -52.5q-16 -4 -30 -11v-280q-6 -11 -15 -11q-3 0 -10 7v301q0 8 10 8q40 2 69.5 22 t45 47.5t23.5 65t9.5 67t0.5 60.5l-6 135v80q0 7 -2 68q-9 154 -33 237q-31 117 -121 117q-36 0 -63.5 -18t-42.5 -47.5t-22.5 -59.5t-10.5 -63q-6 -48 -6 -56v-116q0 -3 -4.5 -6t-8.5 -3t-10 6zM207 0v68v67l12 10q4 0 12 -8v-139q-6 -6 -12 -6q-8 0 -12 8z" />
<glyph unicode="@" horiz-adv-x="706" d="M49 831q0 88 27 154q46 108 118.5 173t157.5 65q62 0 112.5 -22t83.5 -60t56.5 -83t36 -96.5t18 -95t5.5 -84.5q0 -17 -0.5 -35.5t-5 -54.5t-11.5 -62.5t-22.5 -47.5t-36.5 -21q-20 0 -39 18t-27 42q-1 3 -6 47q-57 -111 -176 -111q-47 0 -83 28t-54 70t-26.5 80.5 t-8.5 69.5q0 44 20.5 95.5t64 92.5t97.5 41q51 0 98.5 -31t75.5 -92v136q4 8 13 8q6 0 12 -6l4 -215l-4 -179v-10v-13t0.5 -13t2.5 -13.5t4.5 -11t7.5 -8t11 -2.5q13 0 29 13.5t19 27.5q20 94 20 194q0 96 -29.5 174.5t-115.5 149.5q-69 57 -142 57q-48 0 -108 -37 q-172 -114 -172 -346q0 -108 41.5 -214.5t109.5 -162.5q51 -39 125 -39q59 0 117 31t98 94q4 4 11 4q14 0 14 -10q0 -9 -36 -46t-42 -40q-4 -4 -16.5 -12t-14.5 -10q-6 -3 -19.5 -10.5t-19.5 -10.5q-46 -16 -86 -16q-39 0 -94 22q-56 22 -100.5 76.5t-68 120.5t-35 127 t-11.5 110zM193 805q0 -29 7.5 -64t22.5 -73t46 -63t71 -25q87 0 136.5 68t49.5 149q0 43 -15 89t-53.5 84t-92.5 38q-80 0 -126 -66t-46 -137z" />
<glyph unicode="A" horiz-adv-x="487" d="M57 0q0 1 5 49t12 116t10 107q2 17 20 224q14 133 19 184q9 80 16 164q1 15 7 64.5t8 76.5q1 19 6 63.5t6 59.5q40 433 45 479q4 8 12 8q10 0 10 -8q19 -145 33 -268q21 -178 61 -519t66.5 -568.5t26.5 -229.5q0 -14 -10 -14q-12 0 -15 10q-3 29 -10.5 93.5t-14.5 124.5 t-12 114l-4 4h-239q-1 -1 -1 -3t-1 -3q-21 -237 -33 -332q0 -8 -12 -8q-11 0 -11 12zM117 358h237l-131 1112z" />
<glyph unicode="B" horiz-adv-x="344" d="M53 -2v1561q0 12 29 12q54 0 98 -41.5t66 -110.5q3 -8 8 -41q2 -16 2 -53q0 -185 -162 -270q80 -54 131 -142t68.5 -169.5t17.5 -165.5q0 -56 -6 -109q-4 -29 -24 -119q-6 -24 -25 -78q-20 -51 -51 -112q-5 -7 -17.5 -27.5t-17.5 -28.5q-18 -26 -55.5 -71t-46.5 -45 q-4 0 -9.5 3t-5.5 7zM78 27q105 118 158 257t53 271q0 60 -10 124.5t-32.5 134t-66 128.5t-102.5 90v-1005zM78 1073q81 42 120.5 110t39.5 140q0 37 -10 78t-39.5 83.5t-71.5 55.5q-5 1 -20 3t-19 3v-473z" />
<glyph unicode="C" horiz-adv-x="397" d="M37 766v180q0 1 1 19t1 26q9 145 36.5 265.5t92.5 236.5q22 36 52.5 63t58.5 27q38 0 65 -35q2 -2 6.5 -7.5t7 -9t2.5 -7.5t-3 -6t-6 -2h-3q-6 0 -26 21.5t-46 21.5q-33 0 -69 -52q-81 -120 -111 -272q-14 -60 -20 -109q-4 -26 -8 -68.5t-6.5 -72.5t-2.5 -33v-168 q0 -63 15.5 -181.5t23.5 -162.5q27 -118 45 -178q19 -70 56 -137l5 -12q6 -12 10 -19t11.5 -20t14.5 -21.5t16 -18t19 -14t20 -4.5q11 0 21 6t15 10.5t21 22.5q1 0 2.5 1t3.5 1q13 0 13 -10q0 -12 -26 -32.5t-36 -20.5h-12q-29 0 -59 28.5t-52 71.5q-119 246 -143 594 q-6 69 -6 78z" />
<glyph unicode="D" horiz-adv-x="364" d="M38 1581v3t1.5 6.5t4 6.5t7.5 2q4 0 11 -8.5t13 -18.5t7 -11q72 -117 121 -252q41 -105 69 -224q43 -179 43 -368q0 -48 -6 -129q-2 -12 -5.5 -50t-6.5 -59q-11 -75 -14 -90q-2 -10 -8 -38l-9 -42q-15 -74 -41 -133q-10 -25 -45 -84l-6 -8q-6 -7 -14 -17t-19 -22.5 t-21.5 -22.5t-20 -17t-15.5 -7q-4 0 -8 5.5t-4 10.5l-33 1557zM66 1540l30 -1503q100 106 146.5 289t46.5 385q0 439 -223 829z" />
<glyph unicode="E" horiz-adv-x="405" d="M39 1565q0 26 14 26h291q6 -6 6 -12t-6 -12h-278l16 -1188l4 -4h162q10 -5 10 -13q0 -7 -10 -12h-160v-336h240q2 0 8 -6v-12q0 -4 -4 -4h-258q-4 4 -5.5 8t-1.5 10t-1 8z" />
<glyph unicode="F" horiz-adv-x="395" d="M39 1522v51q5 10 16 10h281q6 0 10 -4.5t4 -9.5q0 -3 -4.5 -8t-7.5 -5h-272l16 -1189h166q8 -8 8 -13q0 -6 -6 -12h-162l-4 -2v-43q1 -49 2 -157.5t2 -147.5q-3 -6 -10 -6q-6 0 -12 6z" />
<glyph unicode="G" horiz-adv-x="372" d="M25 844l4 229q0 17 2 49t2 49q1 30 3 61t8 83.5t18.5 96t30.5 85.5t47.5 66t66.5 24q30 0 55.5 -26.5t38.5 -63.5q1 -5 4.5 -17t3.5 -14q0 -10 -10 -10q-9 0 -12 6q-9 36 -35.5 69.5t-58.5 33.5q-31 0 -57 -37t-38 -76q-43 -138 -47 -389l-2 -174l2 -391q0 -31 3 -68 t9 -84.5t7 -62.5q10 -97 22 -148q8 -38 41.5 -86.5t71.5 -48.5q25 0 46.5 24t33.5 56q7 26 10 47q12 90 12 139v76q-12 14 -45 14q-3 0 -25.5 -2t-25.5 -2q-14 0 -14 13q0 7 6 10q6 0 20 1t21 1q57 2 73 2q12 0 15 -6q2 -9 2 -62q0 -325 -127 -325q-27 0 -48.5 8t-37 27 t-25 33t-17.5 45t-11 42.5t-9 44.5q-2 7 -4 26t-4 28q-22 145 -22 260z" />
<glyph unicode="H" horiz-adv-x="397" d="M51 1597q9 9 12 9q4 0 11 -7l8 -1220h240l-19 1220q7 7 10 7q4 0 8.5 -6t4.5 -9l26 -1589q-4 -8 -10 -8q-4 0 -14 10l-4 350h-238v-350q-7 -10 -12 -10q-3 0 -11 8q0 29 -2 43z" />
<glyph unicode="I" horiz-adv-x="122" d="M43 1593q9 9 12 9q4 0 11 -7l10 -1536v-57q-2 -8 -13 -8q-4 0 -10 6z" />
<glyph unicode="J" horiz-adv-x="317" d="M33 201q0 3 5 7.5t9 4.5q7 0 10 -6l3 -19q4 -20 8.5 -39.5t13.5 -45.5t20.5 -45.5t29 -33.5t38.5 -14q30 0 51 22t21 60l-2 1489q4 12 12 12q4 0 8 -5t4 -7l4 -1442q-1 -7 -3 -39t-7 -47q-8 -29 -34 -48t-48 -19q-29 0 -54 18.5t-40.5 48.5t-24 55.5t-14.5 51.5 q-1 6 -5.5 22t-4.5 19z" />
<glyph unicode="K" horiz-adv-x="358" d="M43 -6v1612q0 3 4.5 7.5t7.5 4.5q12 0 15 -16v-1133q7 37 20.5 110.5t20.5 110.5q2 15 13 71.5t15 84.5q3 16 11 66.5t14 78.5q2 11 10.5 54t11.5 67q2 12 8.5 42.5t8.5 47.5q1 5 6.5 33.5t7.5 44.5q40 220 62 330q0 2 3.5 5t6.5 3q9 0 14 -14l-231 -1262q2 -4 24 -49 q7 -13 25 -44.5t26 -47.5q9 -16 25.5 -49.5t27 -53t30 -46t42.5 -46.5q10 -10 27 -14q4 0 8 -4v-11q-8 -8 -14 -8q-14 0 -35 17q-37 31 -88 127q-13 22 -100 178v-297q-4 -14 -15 -14q-12 0 -12 14z" />
<glyph unicode="L" horiz-adv-x="362" d="M51 0l8 1587q0 4 4 9.5t9 5.5q12 0 12 -21l-10 -1563h243q9 -4 9 -14q0 -3 -7 -10h-262z" />
<glyph unicode="M" horiz-adv-x="524" d="M47 -8v1599q4 4 8 4q9 0 13 -8q33 -77 96 -230.5t96 -230.5q23 56 182 463q3 6 11 6q5 0 8.5 -6.5t3.5 -9.5l12 -1585q-4 -8 -10 -8q-11 0 -14 14l-13 1520q-75 -187 -168 -430q-1 -1 -3 -3.5t-3 -3.5h-10q-2 0 -8 11q-34 84 -100.5 244.5t-75.5 181.5v-1526 q-4 -8 -13 -8q-3 0 -12 6z" />
<glyph unicode="N" horiz-adv-x="528" d="M53 1597q7 7 13 7q8 0 12 -9q15 -59 45 -176t45 -176q103 -400 293 -1137l-10 1491q7 7 12 7q4 0 8 -5t4 -10l12 -1587q-8 -8 -12 -8t-10 6q-16 62 -105 401q-47 183 -140 546.5t-140 545.5v-1491q-4 -8 -10 -8q-10 0 -13 14z" />
<glyph unicode="O" horiz-adv-x="665" d="M27 870q0 39 6 138q14 182 61 319q7 21 27 62.5t51.5 96.5t74.5 94.5t83 39.5q33 0 67.5 -29t61.5 -71.5t44 -75.5t25 -55q34 -87 50 -162q15 -73 18 -97q13 -95 14 -110q11 -96 11 -111v-200q0 -1 -2.5 -15t-2.5 -20q-6 -99 -30 -238q-4 -26 -13.5 -69.5t-31 -118 t-46.5 -135.5t-62.5 -106.5t-76.5 -45.5q-46 0 -96 57q-38 41 -59 84q-49 88 -105 285q-69 253 -69 483zM51 868q0 -192 45 -383q25 -103 38 -150.5t47.5 -130.5t80.5 -149q46 -65 90 -65q36 0 66.5 40.5t50.5 88.5q98 235 127 600q4 24 4 39v168q0 3 -1.5 18t-3.5 35.5 t-3 30.5q-8 96 -37 208.5t-72 198.5q0 1 -11 22.5t-19.5 38.5t-24.5 42t-30.5 42t-33 29.5t-36.5 12.5q-32 0 -75 -48t-74 -102t-44 -92q-50 -140 -59 -205q-2 -10 -5.5 -27t-5 -27.5t-4.5 -37.5t-6 -68q-4 -39 -4 -129z" />
<glyph unicode="P" horiz-adv-x="331" d="M41 -6v1585q0 3 4 6.5t8 3.5q2 0 41 -39q82 -95 123 -188q18 -36 25 -57q25 -64 41 -170q10 -54 10 -138q0 -35 -8 -129q-2 -19 -9 -58.5t-10 -59.5q-18 -70 -20 -82q-3 -9 -12 -38t-15 -44q-4 -14 -18 -50t-19 -51q-2 -7 -9.5 -22.5t-8.5 -18.5l-17 -34q-6 -15 -27 -53 t-39 -69l-18 -30v-266q-6 -6 -12 -6q-10 0 -10 8zM63 305q205 364 205 692q0 321 -205 549v-1241z" />
<glyph unicode="Q" horiz-adv-x="679" d="M55 780v154q0 2 1 18.5t1 24.5q12 206 74 358q10 26 28.5 61t49 83.5t70 81t77.5 32.5q32 0 65.5 -29t58.5 -70t46 -83.5t32 -70.5t11 -31q17 -48 33 -119q1 -8 8 -34.5t8 -39.5q2 -15 6.5 -47.5t7 -52.5t5 -48t2.5 -50v-154q0 -2 -1 -14.5t-2.5 -31.5t-2.5 -28 q-37 -469 -176 -659l94 -217q0 -2 -4.5 -7.5t-7.5 -5.5q-4 0 -23 39.5t-44.5 96.5t-37.5 79q-26 -26 -69 -26q-60 0 -114.5 50.5t-86.5 121.5q-48 114 -70 239q-5 24 -16 107q-1 4 -6.5 54.5t-11 117t-5.5 100.5zM78 854l2 -119q3 -208 59 -426q1 -4 8 -30t9.5 -34.5 t10.5 -32.5t13.5 -35t15 -32t20 -33.5t24 -28.5t30 -28.5t35.5 -23.5q30 -15 55 -15q12 0 34.5 8t29.5 15l-78 180q-1 3 4 7.5t10 4.5q4 0 18.5 -29.5t36.5 -79.5t29 -65q2 2 11.5 14t13.5 17q104 163 137 586q1 8 2.5 26t2.5 29.5t1 13.5v166q0 3 -2.5 35.5t-7 77 t-8.5 68.5q-34 212 -125 374q-61 109 -115 109q-43 0 -86 -46.5t-72.5 -110t-45.5 -105t-19 -54.5q-35 -108 -47 -260q-6 -81 -6 -143z" />
<glyph unicode="R" horiz-adv-x="325" d="M31 1569q2 6 1 14t1.5 15.5t11.5 7.5q5 0 35 -25q95 -83 145 -227q21 -71 25 -90q9 -40 12 -68q12 -90 12 -139q0 -57 -7 -117t-18 -113t-26 -104.5t-31.5 -95t-33 -82.5t-31.5 -69t-26 -51.5t-18 -33.5l-7 -12q0 -1 14 -23.5t33 -53.5t27 -46q28 -48 53 -85t62.5 -84.5 t79.5 -81.5t85 -48q3 -1 13 -5t16 -5q60 -13 106 -13q88 0 156 25q8 3 24.5 10.5t30 14t15.5 6.5q3 0 7.5 -5t4.5 -8q0 -9 -35 -26q-103 -43 -199 -43q-67 0 -123.5 19t-101.5 50.5t-92 88t-85 116t-89 150.5v-326q0 -6 -10 -6q-7 0 -13 6zM55 1569l19 -1143 q180 329 180 637q0 315 -199 506z" />
<glyph unicode="S" horiz-adv-x="368" d="M35 84q0 4 5.5 7t8.5 3t13 -12t22 -27t35.5 -27t50.5 -12q63 0 94 53t35 124q6 36 6 94l-2 69q-3 68 -27 193q-10 46 -28.5 101.5t-46 127t-31.5 84.5q-84 257 -84 412q0 56 8.5 131.5t18.5 103.5q16 37 24 50q21 34 72 34q31 0 52 -24.5t27.5 -50.5t6.5 -50 q0 -12 -10 -12q-3 0 -8 2.5t-5 5.5q0 1 -1.5 10.5t-2 14t-2.5 15t-4.5 16.5t-6 15t-8 14.5t-10 11t-12.5 8t-16 2.5q-96 0 -96 -275q0 -98 23 -204t56 -200t65.5 -188t55.5 -201.5t23 -207.5q0 -70 -19 -153.5t-49 -116.5q-35 -37 -86 -37q-21 0 -37 4q-36 9 -55 28l-4 3 l-7.5 7.5l-10.5 10.5l-12 12t-10.5 11.5t-7.5 11t-3 8.5z" />
<glyph unicode="T" horiz-adv-x="481" d="M31 1587q0 12 12 12h379q8 -8 8 -12q0 -2 -8 -10h-189v-1575q-5 -10 -12 -10q-4 0 -12 8v1575h-172q-6 9 -6 12z" />
<glyph unicode="U" horiz-adv-x="417" d="M45 1595q11 11 12 11q4 0 13 -9q1 -182 1.5 -295.5t2.5 -202t3 -119t4.5 -119t4.5 -128.5q10 -362 72 -604q3 -14 9.5 -33t21.5 -46t30 -27q9 0 27 24q31 50 41 119q43 279 53 600l4 147q2 65 2 125v57v49q0 46 -0.5 85t-1.5 66t-2 46t-1.5 29.5t-0.5 11.5q-4 92 -4 191 q0 33 12 33q1 0 2.5 -1t2.5 -3t2.5 -4t2.5 -3q0 -31 2 -47l5 -198l-7 -602q-4 -224 -28 -433q-3 -29 -21 -135q-30 -182 -94 -182q-35 0 -63.5 76.5t-28.5 99.5q-34 194 -50 357.5t-22 369.5l-4 125z" />
<glyph unicode="V" horiz-adv-x="458" d="M49 1583q0 3 4 6.5t8 3.5q2 0 7.5 -4.5t5.5 -9.5q26 -253 73 -741.5t70 -720.5q20 150 31 248q4 33 12 110.5t12 110.5q1 10 9 73t12 95q1 14 8.5 68t9.5 85q13 116 13 119q23 211 65 555q0 3 4.5 7.5t7.5 4.5q11 0 11 -16q0 -1 -6 -51t-14 -117t-11 -98 q-64 -558 -152 -1305q0 -8 -8 -16h-10q-1 1 -3 4t-3 4q-5 51 -15.5 149t-11.5 111q-129 1320 -129 1325z" />
<glyph unicode="W" horiz-adv-x="749" d="M47 1604q0 16 12 16q3 0 8 -4.5t5 -7.5q102 -957 161 -1491q4 44 11.5 132t11.5 132q16 171 18 219q2 22 7.5 81t7.5 89q1 17 3 41.5t5 55.5t4 48q3 57 10 121q4 67 8 99q25 296 39 475q10 10 13 10q9 0 12 -10q37 -290 102.5 -830.5t79.5 -656.5h2q2 25 10 128.5 t11 141.5q6 97 16 215q2 23 7 89t7 100q0 10 13 164q34 489 47 645q0 4 6 9t8 5q3 0 8 -4.5t5 -7.5q0 -2 -4.5 -53.5t-10.5 -121.5t-8 -100q-8 -98 -18 -243q-1 -16 -4.5 -51.5t-6 -69.5t-4.5 -68q-2 -21 -6 -80t-6 -82q-4 -63 -10 -135q-1 -11 -4.5 -49t-4.5 -59 q-4 -55 -16 -236.5t-20 -273.5q0 -2 -5 -6.5t-8 -4.5q-10 0 -10 7q-38 289 -103.5 824.5t-82.5 674.5q-6 -51 -23 -252q-1 -15 -8.5 -96.5t-9.5 -124.5q-1 -19 -8 -90.5t-9 -104.5q-4 -70 -10 -143q-20 -260 -57 -680q0 -4 -3.5 -9.5t-8.5 -5.5q-3 0 -8 4.5t-5 6.5 q-5 42 -14 129.5t-14 132.5q-21 191 -58.5 536.5t-63.5 581.5t-26 238z" />
<glyph unicode="X" horiz-adv-x="405" d="M45 14l139 787l-139 788q0 5 5 10t7 5q6 0 11 -5q42 -236 127 -722q1 0 1 -1.5t1 -1.5q11 55 22 121q5 38 19 103q2 11 7 41.5t7 46.5q11 61 36.5 205.5t37.5 205.5q0 2 3.5 4.5t6.5 2.5q9 0 14 -15l-141 -786l141 -791q-7 -14 -14 -14q-2 0 -5.5 2.5t-4.5 3.5 q-58 345 -129 727q-5 -20 -13 -68t-10 -61q-73 -415 -104 -592q-6 -12 -11 -12q-3 0 -8.5 6t-5.5 10z" />
<glyph unicode="Y" horiz-adv-x="473" d="M23 1614q0 3 4.5 6.5t7.5 3.5q7 0 10 -6q62 -164 178 -485q27 67 93 233.5t102 255.5q3 6 12 6q12 0 12 -10q0 -8 -73 -186q-15 -39 -62 -155t-71 -179v-21l12 -1071q-3 -6 -12 -6q-11 0 -13 12l-12 1084z" />
<glyph unicode="Z" horiz-adv-x="405" d="M49 12l279 1567h-271q-8 4 -8 12q0 5 4 9t8 4h285q6 -12 6 -15l-278 -1566h274q4 -8 4 -13q0 -3 -2.5 -7.5t-5.5 -4.5h-285q-3 0 -10 14z" />
<glyph unicode="\" horiz-adv-x="309" d="M-23 1686q0 6 5 10t10 4q4 0 8 -4q28 -135 57 -289l289 -1436q0 -5 -4 -9.5t-10 -4.5q-5 0 -10 10q-1 4 -4.5 20t-4.5 25q-11 60 -47 238q-39 195 -114 566.5t-125 619.5t-50 250z" />
<glyph unicode="^" horiz-adv-x="456" d="M37 1274q0 4 35 74q9 17 31 56.5t32 59.5q3 7 17.5 34.5t21.5 41.5q1 1 9 18t17 30.5t13 13.5q6 0 23.5 -24.5t21.5 -33.5q20 -32 66 -103.5t75 -117.5t29 -49q0 -4 -3.5 -7t-6.5 -4l-4 -1q-7 0 -19 18q-4 7 -13 21.5t-13 21.5q-11 17 -67 105.5t-87 136.5 q-69 -127 -154 -291q-6 -12 -14 -12q-10 0 -10 12z" />
<glyph unicode="_" horiz-adv-x="827" d="M31 -35q0 10 14 10h746q6 -3 6 -10q0 -6 -6 -12h-750q-10 5 -10 12z" />
<glyph unicode="a" horiz-adv-x="487" d="M57 0q0 1 5 49t12 116t10 107q2 17 20 224q14 133 19 184q9 80 16 164q1 15 7 64.5t8 76.5q1 19 6 63.5t6 59.5q40 433 45 479q4 8 12 8q10 0 10 -8q19 -145 33 -268q21 -178 61 -519t66.5 -568.5t26.5 -229.5q0 -14 -10 -14q-12 0 -15 10q-3 29 -10.5 93.5t-14.5 124.5 t-12 114l-4 4h-239q-1 -1 -1 -3t-1 -3q-21 -237 -33 -332q0 -8 -12 -8q-11 0 -11 12zM117 358h237l-131 1112z" />
<glyph unicode="b" horiz-adv-x="344" d="M53 -2v1561q0 12 29 12q54 0 98 -41.5t66 -110.5q3 -8 8 -41q2 -16 2 -53q0 -185 -162 -270q80 -54 131 -142t68.5 -169.5t17.5 -165.5q0 -56 -6 -109q-4 -29 -24 -119q-6 -24 -25 -78q-20 -51 -51 -112q-5 -7 -17.5 -27.5t-17.5 -28.5q-18 -26 -55.5 -71t-46.5 -45 q-4 0 -9.5 3t-5.5 7zM78 27q105 118 158 257t53 271q0 60 -10 124.5t-32.5 134t-66 128.5t-102.5 90v-1005zM78 1073q81 42 120.5 110t39.5 140q0 37 -10 78t-39.5 83.5t-71.5 55.5q-5 1 -20 3t-19 3v-473z" />
<glyph unicode="c" horiz-adv-x="397" d="M37 766v180q0 1 1 19t1 26q9 145 36.5 265.5t92.5 236.5q22 36 52.5 63t58.5 27q38 0 65 -35q2 -2 6.5 -7.5t7 -9t2.5 -7.5t-3 -6t-6 -2h-3q-6 0 -26 21.5t-46 21.5q-33 0 -69 -52q-81 -120 -111 -272q-14 -60 -20 -109q-4 -26 -8 -68.5t-6.5 -72.5t-2.5 -33v-168 q0 -63 15.5 -181.5t23.5 -162.5q27 -118 45 -178q19 -70 56 -137l5 -12q6 -12 10 -19t11.5 -20t14.5 -21.5t16 -18t19 -14t20 -4.5q11 0 21 6t15 10.5t21 22.5q1 0 2.5 1t3.5 1q13 0 13 -10q0 -12 -26 -32.5t-36 -20.5h-12q-29 0 -59 28.5t-52 71.5q-119 246 -143 594 q-6 69 -6 78z" />
<glyph unicode="d" horiz-adv-x="364" d="M38 1581v3t1.5 6.5t4 6.5t7.5 2q4 0 11 -8.5t13 -18.5t7 -11q72 -117 121 -252q41 -105 69 -224q43 -179 43 -368q0 -48 -6 -129q-2 -12 -5.5 -50t-6.5 -59q-11 -75 -14 -90q-2 -10 -8 -38l-9 -42q-15 -74 -41 -133q-10 -25 -45 -84l-6 -8q-6 -7 -14 -17t-19 -22.5 t-21.5 -22.5t-20 -17t-15.5 -7q-4 0 -8 5.5t-4 10.5l-33 1557zM66 1540l30 -1503q100 106 146.5 289t46.5 385q0 439 -223 829z" />
<glyph unicode="e" horiz-adv-x="405" d="M39 1565q0 26 14 26h291q6 -6 6 -12t-6 -12h-278l16 -1188l4 -4h162q10 -5 10 -13q0 -7 -10 -12h-160v-336h240q2 0 8 -6v-12q0 -4 -4 -4h-258q-4 4 -5.5 8t-1.5 10t-1 8z" />
<glyph unicode="f" horiz-adv-x="395" d="M39 1522v51q5 10 16 10h281q6 0 10 -4.5t4 -9.5q0 -3 -4.5 -8t-7.5 -5h-272l16 -1189h166q8 -8 8 -13q0 -6 -6 -12h-162l-4 -2v-43q1 -49 2 -157.5t2 -147.5q-3 -6 -10 -6q-6 0 -12 6z" />
<glyph unicode="g" horiz-adv-x="372" d="M25 844l4 229q0 17 2 49t2 49q1 30 3 61t8 83.5t18.5 96t30.5 85.5t47.5 66t66.5 24q30 0 55.5 -26.5t38.5 -63.5q1 -5 4.5 -17t3.5 -14q0 -10 -10 -10q-9 0 -12 6q-9 36 -35.5 69.5t-58.5 33.5q-31 0 -57 -37t-38 -76q-43 -138 -47 -389l-2 -174l2 -391q0 -31 3 -68 t9 -84.5t7 -62.5q10 -97 22 -148q8 -38 41.5 -86.5t71.5 -48.5q25 0 46.5 24t33.5 56q7 26 10 47q12 90 12 139v76q-12 14 -45 14q-3 0 -25.5 -2t-25.5 -2q-14 0 -14 13q0 7 6 10q6 0 20 1t21 1q57 2 73 2q12 0 15 -6q2 -9 2 -62q0 -325 -127 -325q-27 0 -48.5 8t-37 27 t-25 33t-17.5 45t-11 42.5t-9 44.5q-2 7 -4 26t-4 28q-22 145 -22 260z" />
<glyph unicode="h" horiz-adv-x="397" d="M51 1597q9 9 12 9q4 0 11 -7l8 -1220h240l-19 1220q7 7 10 7q4 0 8.5 -6t4.5 -9l26 -1589q-4 -8 -10 -8q-4 0 -14 10l-4 350h-238v-350q-7 -10 -12 -10q-3 0 -11 8q0 29 -2 43z" />
<glyph unicode="i" horiz-adv-x="122" d="M43 1593q9 9 12 9q4 0 11 -7l10 -1536v-57q-2 -8 -13 -8q-4 0 -10 6z" />
<glyph unicode="j" horiz-adv-x="317" d="M33 201q0 3 5 7.5t9 4.5q7 0 10 -6l3 -19q4 -20 8.5 -39.5t13.5 -45.5t20.5 -45.5t29 -33.5t38.5 -14q30 0 51 22t21 60l-2 1489q4 12 12 12q4 0 8 -5t4 -7l4 -1442q-1 -7 -3 -39t-7 -47q-8 -29 -34 -48t-48 -19q-29 0 -54 18.5t-40.5 48.5t-24 55.5t-14.5 51.5 q-1 6 -5.5 22t-4.5 19z" />
<glyph unicode="k" horiz-adv-x="358" d="M43 -6v1612q0 3 4.5 7.5t7.5 4.5q12 0 15 -16v-1133q7 37 20.5 110.5t20.5 110.5q2 15 13 71.5t15 84.5q3 16 11 66.5t14 78.5q2 11 10.5 54t11.5 67q2 12 8.5 42.5t8.5 47.5q1 5 6.5 33.5t7.5 44.5q40 220 62 330q0 2 3.5 5t6.5 3q9 0 14 -14l-231 -1262q2 -4 24 -49 q7 -13 25 -44.5t26 -47.5q9 -16 25.5 -49.5t27 -53t30 -46t42.5 -46.5q10 -10 27 -14q4 0 8 -4v-11q-8 -8 -14 -8q-14 0 -35 17q-37 31 -88 127q-13 22 -100 178v-297q-4 -14 -15 -14q-12 0 -12 14z" />
<glyph unicode="l" horiz-adv-x="362" d="M51 0l8 1587q0 4 4 9.5t9 5.5q12 0 12 -21l-10 -1563h243q9 -4 9 -14q0 -3 -7 -10h-262z" />
<glyph unicode="m" horiz-adv-x="524" d="M47 -8v1599q4 4 8 4q9 0 13 -8q33 -77 96 -230.5t96 -230.5q23 56 182 463q3 6 11 6q5 0 8.5 -6.5t3.5 -9.5l12 -1585q-4 -8 -10 -8q-11 0 -14 14l-13 1520q-75 -187 -168 -430q-1 -1 -3 -3.5t-3 -3.5h-10q-2 0 -8 11q-34 84 -100.5 244.5t-75.5 181.5v-1526 q-4 -8 -13 -8q-3 0 -12 6z" />
<glyph unicode="n" horiz-adv-x="528" d="M53 1597q7 7 13 7q8 0 12 -9q15 -59 45 -176t45 -176q103 -400 293 -1137l-10 1491q7 7 12 7q4 0 8 -5t4 -10l12 -1587q-8 -8 -12 -8t-10 6q-16 62 -105 401q-47 183 -140 546.5t-140 545.5v-1491q-4 -8 -10 -8q-10 0 -13 14z" />
<glyph unicode="o" horiz-adv-x="665" d="M27 870q0 39 6 138q14 182 61 319q7 21 27 62.5t51.5 96.5t74.5 94.5t83 39.5q33 0 67.5 -29t61.5 -71.5t44 -75.5t25 -55q34 -87 50 -162q15 -73 18 -97q13 -95 14 -110q11 -96 11 -111v-200q0 -1 -2.5 -15t-2.5 -20q-6 -99 -30 -238q-4 -26 -13.5 -69.5t-31 -118 t-46.5 -135.5t-62.5 -106.5t-76.5 -45.5q-46 0 -96 57q-38 41 -59 84q-49 88 -105 285q-69 253 -69 483zM51 868q0 -192 45 -383q25 -103 38 -150.5t47.5 -130.5t80.5 -149q46 -65 90 -65q36 0 66.5 40.5t50.5 88.5q98 235 127 600q4 24 4 39v168q0 3 -1.5 18t-3.5 35.5 t-3 30.5q-8 96 -37 208.5t-72 198.5q0 1 -11 22.5t-19.5 38.5t-24.5 42t-30.5 42t-33 29.5t-36.5 12.5q-32 0 -75 -48t-74 -102t-44 -92q-50 -140 -59 -205q-2 -10 -5.5 -27t-5 -27.5t-4.5 -37.5t-6 -68q-4 -39 -4 -129z" />
<glyph unicode="p" horiz-adv-x="331" d="M41 -6v1585q0 3 4 6.5t8 3.5q2 0 41 -39q82 -95 123 -188q18 -36 25 -57q25 -64 41 -170q10 -54 10 -138q0 -35 -8 -129q-2 -19 -9 -58.5t-10 -59.5q-18 -70 -20 -82q-3 -9 -12 -38t-15 -44q-4 -14 -18 -50t-19 -51q-2 -7 -9.5 -22.5t-8.5 -18.5l-17 -34q-6 -15 -27 -53 t-39 -69l-18 -30v-266q-6 -6 -12 -6q-10 0 -10 8zM63 305q205 364 205 692q0 321 -205 549v-1241z" />
<glyph unicode="q" horiz-adv-x="679" d="M55 780v154q0 2 1 18.5t1 24.5q12 206 74 358q10 26 28.5 61t49 83.5t70 81t77.5 32.5q32 0 65.5 -29t58.5 -70t46 -83.5t32 -70.5t11 -31q17 -48 33 -119q1 -8 8 -34.5t8 -39.5q2 -15 6.5 -47.5t7 -52.5t5 -48t2.5 -50v-154q0 -2 -1 -14.5t-2.5 -31.5t-2.5 -28 q-37 -469 -176 -659l94 -217q0 -2 -4.5 -7.5t-7.5 -5.5q-4 0 -23 39.5t-44.5 96.5t-37.5 79q-26 -26 -69 -26q-60 0 -114.5 50.5t-86.5 121.5q-48 114 -70 239q-5 24 -16 107q-1 4 -6.5 54.5t-11 117t-5.5 100.5zM78 854l2 -119q3 -208 59 -426q1 -4 8 -30t9.5 -34.5 t10.5 -32.5t13.5 -35t15 -32t20 -33.5t24 -28.5t30 -28.5t35.5 -23.5q30 -15 55 -15q12 0 34.5 8t29.5 15l-78 180q-1 3 4 7.5t10 4.5q4 0 18.5 -29.5t36.5 -79.5t29 -65q2 2 11.5 14t13.5 17q104 163 137 586q1 8 2.5 26t2.5 29.5t1 13.5v166q0 3 -2.5 35.5t-7 77 t-8.5 68.5q-34 212 -125 374q-61 109 -115 109q-43 0 -86 -46.5t-72.5 -110t-45.5 -105t-19 -54.5q-35 -108 -47 -260q-6 -81 -6 -143z" />
<glyph unicode="r" horiz-adv-x="325" d="M35 1563q0 28 12 28q5 0 29 -18q78 -58 133 -174q9 -17 16 -43q33 -100 39 -154q10 -76 10 -158q0 -105 -20 -212t-48 -185.5t-56 -141t-48 -98.5t-20 -38q0 -6 5 -13t12.5 -15.5t11.5 -14.5q16 -29 26 -62q8 -28 17 -49q1 -7 7 -24t7 -21q1 -7 6 -23t6 -18q7 -25 39 -74 q1 -3 29 -30q16 -14 43 -27q6 0 6 -10q0 -4 -3 -8.5t-7 -4.5q-12 0 -44 26t-40 38q-30 46 -59.5 143.5t-61.5 145.5v-336q-3 -6 -10 -6t-13 6zM61 1552l17 -1138q86 154 133 318.5t47 316.5q0 317 -197 503z" />
<glyph unicode="s" horiz-adv-x="368" d="M35 84q0 4 5.5 7t8.5 3t13 -12t22 -27t35.5 -27t50.5 -12q63 0 94 53t35 124q6 36 6 94l-2 69q-3 68 -27 193q-10 46 -28.5 101.5t-46 127t-31.5 84.5q-84 257 -84 412q0 56 8.5 131.5t18.5 103.5q16 37 24 50q21 34 72 34q31 0 52 -24.5t27.5 -50.5t6.5 -50 q0 -12 -10 -12q-3 0 -8 2.5t-5 5.5q0 1 -1.5 10.5t-2 14t-2.5 15t-4.5 16.5t-6 15t-8 14.5t-10 11t-12.5 8t-16 2.5q-96 0 -96 -275q0 -98 23 -204t56 -200t65.5 -188t55.5 -201.5t23 -207.5q0 -70 -19 -153.5t-49 -116.5q-35 -37 -86 -37q-21 0 -37 4q-36 9 -55 28l-4 3 l-7.5 7.5l-10.5 10.5l-12 12t-10.5 11.5t-7.5 11t-3 8.5z" />
<glyph unicode="t" horiz-adv-x="481" d="M31 1587q0 12 12 12h379q8 -8 8 -12q0 -2 -8 -10h-189v-1575q-5 -10 -12 -10q-4 0 -12 8v1575h-172q-6 9 -6 12z" />
<glyph unicode="u" horiz-adv-x="417" d="M45 1595q11 11 12 11q4 0 13 -9q1 -182 1.5 -295.5t2.5 -202t3 -119t4.5 -119t4.5 -128.5q10 -362 72 -604q3 -14 9.5 -33t21.5 -46t30 -27q9 0 27 24q31 50 41 119q43 279 53 600l4 147q2 65 2 125v57v49q0 46 -0.5 85t-1.5 66t-2 46t-1.5 29.5t-0.5 11.5q-4 92 -4 191 q0 33 12 33q1 0 2.5 -1t2.5 -3t2.5 -4t2.5 -3q0 -31 2 -47l5 -198l-7 -602q-4 -224 -28 -433q-3 -29 -21 -135q-30 -182 -94 -182q-35 0 -63.5 76.5t-28.5 99.5q-34 194 -50 357.5t-22 369.5l-4 125z" />
<glyph unicode="v" horiz-adv-x="458" d="M49 1583q0 3 4 6.5t8 3.5q2 0 7.5 -4.5t5.5 -9.5q26 -253 73 -741.5t70 -720.5q20 150 31 248q4 33 12 110.5t12 110.5q1 10 9 73t12 95q1 14 8.5 68t9.5 85q13 116 13 119q23 211 65 555q0 3 4.5 7.5t7.5 4.5q11 0 11 -16q0 -1 -6 -51t-14 -117t-11 -98 q-64 -558 -152 -1305q0 -8 -8 -16h-10q-1 1 -3 4t-3 4q-5 51 -15.5 149t-11.5 111q-129 1320 -129 1325z" />
<glyph unicode="w" horiz-adv-x="749" d="M47 1604q0 16 12 16q3 0 8 -4.5t5 -7.5q102 -957 161 -1491q4 44 11.5 132t11.5 132q16 171 18 219q2 22 7.5 81t7.5 89q1 17 3 41.5t5 55.5t4 48q3 57 10 121q4 67 8 99q25 296 39 475q10 10 13 10q9 0 12 -10q37 -290 102.5 -830.5t79.5 -656.5h2q2 25 10 128.5 t11 141.5q6 97 16 215q2 23 7 89t7 100q0 10 13 164q34 489 47 645q0 4 6 9t8 5q3 0 8 -4.5t5 -7.5q0 -2 -4.5 -53.5t-10.5 -121.5t-8 -100q-8 -98 -18 -243q-1 -16 -4.5 -51.5t-6 -69.5t-4.5 -68q-2 -21 -6 -80t-6 -82q-4 -63 -10 -135q-1 -11 -4.5 -49t-4.5 -59 q-4 -55 -16 -236.5t-20 -273.5q0 -2 -5 -6.5t-8 -4.5q-10 0 -10 7q-38 289 -103.5 824.5t-82.5 674.5q-6 -51 -23 -252q-1 -15 -8.5 -96.5t-9.5 -124.5q-1 -19 -8 -90.5t-9 -104.5q-4 -70 -10 -143q-20 -260 -57 -680q0 -4 -3.5 -9.5t-8.5 -5.5q-3 0 -8 4.5t-5 6.5 q-5 42 -14 129.5t-14 132.5q-21 191 -58.5 536.5t-63.5 581.5t-26 238z" />
<glyph unicode="x" horiz-adv-x="405" d="M45 14l139 787l-139 788q0 5 5 10t7 5q6 0 11 -5q42 -236 127 -722q1 0 1 -1.5t1 -1.5q11 55 22 121q5 38 19 103q2 11 7 41.5t7 46.5q11 61 36.5 205.5t37.5 205.5q0 2 3.5 4.5t6.5 2.5q9 0 14 -15l-141 -786l141 -791q-7 -14 -14 -14q-2 0 -5.5 2.5t-4.5 3.5 q-58 345 -129 727q-5 -20 -13 -68t-10 -61q-73 -415 -104 -592q-6 -12 -11 -12q-3 0 -8.5 6t-5.5 10z" />
<glyph unicode="y" horiz-adv-x="473" d="M23 1614q0 3 4.5 6.5t7.5 3.5q7 0 10 -6q62 -164 178 -485q27 67 93 233.5t102 255.5q3 6 12 6q12 0 12 -10q0 -8 -73 -186q-15 -39 -62 -155t-71 -179v-21l12 -1071q-3 -6 -12 -6q-11 0 -13 12l-12 1084z" />
<glyph unicode="z" horiz-adv-x="405" d="M49 12l279 1567h-271q-8 4 -8 12q0 5 4 9t8 4h285q6 -12 6 -15l-278 -1566h274q4 -8 4 -13q0 -3 -2.5 -7.5t-5.5 -4.5h-285q-3 0 -10 14z" />
<glyph unicode="~" horiz-adv-x="727" d="M39 694q0 4 7.5 29.5t14.5 40.5q24 56 70 100.5t94 44.5q34 0 75.5 -30.5t74.5 -66.5t74.5 -66.5t74.5 -30.5q31 0 64 25.5t56 51t28 25.5q10 0 10 -12q0 -7 -17 -26t-34 -35l-17 -15q-3 -2 -15 -10.5t-19 -11.5q-30 -15 -58 -15q-37 0 -70 19.5t-57.5 47t-49 55.5 t-53.5 47.5t-61 19.5q-59 0 -108.5 -64t-61.5 -129q0 -6 -8 -6q-7 0 -10.5 4t-3.5 8z" />
<glyph unicode="&#xad;" horiz-adv-x="573" d="M45 858q0 4 4 12h488q4 -8 4 -12q0 -12 -9 -12h-477q-10 0 -10 12z" />
<glyph unicode="&#xc4;" horiz-adv-x="501" d="M45 893q0 3 4 7.5t8 4.5h56v99h-62q-6 6 -6 12t6 12h64v72q0 78 21 192t44 150q16 24 35 43q13 13 37.5 23t40.5 10q38 0 66 -37.5t39.5 -91.5t16.5 -93t5 -63v-64q-8 -4 -10 -4q-4 0 -8.5 3t-4.5 6v49q0 1 0.5 22.5t0.5 36t-2 42t-6 47.5t-12.5 43.5t-20 38.5 t-29.5 25.5t-41 10.5q-43 0 -74.5 -44.5t-46 -107.5t-21 -110t-6.5 -72v-127h314q10 -5 10 -12q0 -4 -8 -12h-316v-99h312q4 0 12 -8v-10q-1 -1 -5.5 -4.5t-6.5 -3.5h-312v-213q0 -53 4 -80q1 -5 3 -31t4 -47.5t7 -55t11.5 -60t18 -56t25.5 -49t34.5 -32.5t44.5 -13 q31 0 53.5 25t33 60t15 62t4.5 43v127q0 3 5 5.5t8 2.5q4 0 10 -6v-55q0 -2 -1 -14t-1 -17l-2 -21q-2 -20 -6 -48.5t-13 -63t-21.5 -63t-34 -47.5t-48.5 -19q-34 0 -70 29.5t-53 70.5q-27 68 -33 123q-20 143 -20 221v222h-60q-12 0 -12 14z" />
<glyph unicode="&#x2000;" horiz-adv-x="850" />
<glyph unicode="&#x2001;" horiz-adv-x="1700" />
<glyph unicode="&#x2002;" horiz-adv-x="850" />
<glyph unicode="&#x2003;" horiz-adv-x="1700" />
<glyph unicode="&#x2004;" horiz-adv-x="566" />
<glyph unicode="&#x2005;" horiz-adv-x="425" />
<glyph unicode="&#x2006;" horiz-adv-x="283" />
<glyph unicode="&#x2007;" horiz-adv-x="283" />
<glyph unicode="&#x2008;" horiz-adv-x="212" />
<glyph unicode="&#x2009;" horiz-adv-x="340" />
<glyph unicode="&#x200a;" horiz-adv-x="94" />
<glyph unicode="&#x2010;" horiz-adv-x="573" d="M45 858q0 4 4 12h488q4 -8 4 -12q0 -12 -9 -12h-477q-10 0 -10 12z" />
<glyph unicode="&#x2011;" horiz-adv-x="573" d="M45 858q0 4 4 12h488q4 -8 4 -12q0 -12 -9 -12h-477q-10 0 -10 12z" />
<glyph unicode="&#x2012;" horiz-adv-x="573" d="M45 858q0 4 4 12h488q4 -8 4 -12q0 -12 -9 -12h-477q-10 0 -10 12z" />
<glyph unicode="&#x2013;" horiz-adv-x="1101" d="M45 858q0 4 8 12h1008q8 -8 8 -12q0 -12 -19 -12h-984q-21 0 -21 12z" />
<glyph unicode="&#x2014;" horiz-adv-x="2125" d="M45 858q0 4 17 12h2014q17 -8 17 -12q0 -12 -37 -12h-1970q-41 0 -41 12z" />
<glyph unicode="&#x202f;" horiz-adv-x="340" />
<glyph unicode="&#x205f;" horiz-adv-x="425" />
<glyph unicode="&#x25fc;" horiz-adv-x="1607" d="M0 0v1608h1608v-1608h-1608z" />
</font>
</defs>
</svg>
